<svg width="24" height="20" viewBox="0 0 24 20" fill="none" xmlns="http://www.w3.org/2000/svg">
<g id="icon-cs-2 2" clip-path="url(#clip0_2222_6240)">
<path id="Vector" d="M18.5869 8.19471C18.59 8.24256 18.5829 8.29048 18.566 8.33539C18.549 8.38031 18.5227 8.42117 18.4887 8.45527C18.4548 8.48937 18.4139 8.51593 18.3688 8.53324C18.3237 8.55056 18.2754 8.55818 18.2272 8.55565H11.3411C11.2926 8.55813 11.2441 8.55048 11.1988 8.53322C11.1536 8.51595 11.1124 8.48944 11.0781 8.45542C11.0438 8.42139 11.0171 8.38061 10.9996 8.3357C10.9822 8.29079 10.9745 8.24276 10.977 8.19471V7.42124C10.9745 7.37319 10.9822 7.32514 10.9996 7.28026C11.0171 7.23534 11.0438 7.19453 11.0781 7.16053C11.1124 7.12651 11.1536 7.1 11.1988 7.08274C11.2441 7.06547 11.2926 7.05782 11.3411 7.06028H18.2185C18.2668 7.05777 18.315 7.06539 18.3601 7.08271C18.4052 7.1 18.4461 7.12658 18.4801 7.16069C18.514 7.19479 18.5404 7.23565 18.5573 7.28053C18.5742 7.32544 18.5813 7.37339 18.5782 7.42124L18.5869 8.19471Z" fill="white"/>
<path id="Vector_2" d="M21.6334 10.4377C21.6366 10.486 21.6294 10.5343 21.6122 10.5795C21.595 10.6247 21.5683 10.6658 21.5339 10.7C21.4994 10.7342 21.458 10.7606 21.4124 10.7776C21.3668 10.7947 21.318 10.8018 21.2694 10.7987H12.7885C12.7401 10.8019 12.6914 10.7948 12.646 10.7777C12.6006 10.7607 12.5594 10.7341 12.5253 10.6999C12.4912 10.6656 12.4649 10.6245 12.4482 10.5792C12.4316 10.534 12.425 10.4857 12.4288 10.4377V9.64707C12.4256 9.59942 12.4327 9.55162 12.4497 9.50691C12.4666 9.46223 12.493 9.42162 12.5271 9.38785C12.5611 9.35408 12.6021 9.3279 12.6472 9.31112C12.6922 9.29431 12.7404 9.28724 12.7885 9.29041H21.1957C21.2439 9.28732 21.2923 9.29438 21.3376 9.31114C21.3829 9.32793 21.4241 9.354 21.4585 9.3877C21.4929 9.4214 21.5197 9.46193 21.5371 9.50664C21.5546 9.55135 21.5623 9.59919 21.5597 9.64707L21.6334 10.4377Z" fill="white"/>
<path id="Vector_3" d="M5.54345 1.31945C5.54089 1.36732 5.5486 1.41518 5.56604 1.45989C5.58351 1.50459 5.61031 1.54513 5.64471 1.57882C5.6791 1.61251 5.72028 1.6386 5.76557 1.65537C5.81087 1.67214 5.85922 1.6792 5.90748 1.6761H12.7892C12.8377 1.67992 12.8863 1.67334 12.9319 1.65683C12.9776 1.64031 13.0191 1.61425 13.0536 1.5804C13.0882 1.54656 13.1149 1.50573 13.1321 1.4607C13.1493 1.41567 13.1566 1.36749 13.1533 1.31945V0.528792C13.1565 0.480572 13.1493 0.432235 13.1321 0.387007C13.1149 0.341782 13.0882 0.300711 13.0537 0.266542C13.0193 0.232371 12.9779 0.205891 12.9323 0.188869C12.8866 0.171848 12.8379 0.16468 12.7892 0.167842H5.90748C5.859 0.165373 5.81056 0.173013 5.76527 0.190279C5.71997 0.207545 5.67884 0.234046 5.64453 0.268068C5.61021 0.302091 5.58351 0.342878 5.56607 0.38779C5.54865 0.432701 5.54094 0.480739 5.54345 0.528792V1.31945Z" fill="white"/>
<path id="Vector_4" d="M2.57301 3.61399C2.56982 3.66166 2.57694 3.70943 2.59389 3.75414C2.61082 3.79885 2.63722 3.83943 2.67128 3.8732C2.70534 3.90698 2.74629 3.93315 2.79136 3.94996C2.83645 3.96675 2.88465 3.97381 2.9327 3.97065H11.3399C11.3882 3.97376 11.4365 3.96667 11.4818 3.94991C11.5271 3.93315 11.5683 3.90705 11.6027 3.87336C11.6371 3.83968 11.6639 3.79913 11.6813 3.75444C11.6988 3.70974 11.7065 3.66186 11.704 3.61399V2.82333C11.7064 2.77528 11.6987 2.72725 11.6813 2.68234C11.6639 2.63743 11.6372 2.59665 11.6029 2.56262C11.5686 2.5286 11.5274 2.5021 11.4821 2.48483C11.4368 2.46757 11.3884 2.45992 11.3399 2.46239H2.9327C2.88442 2.45986 2.83617 2.4675 2.79108 2.4848C2.74599 2.50211 2.70511 2.52868 2.67113 2.56277C2.63714 2.59687 2.61085 2.63774 2.59392 2.68265C2.57702 2.72756 2.56989 2.77551 2.57301 2.82333V3.61399Z" fill="white"/>
<path id="Vector_5" d="M0.25465 5.91293C0.251457 5.9606 0.258569 6.00838 0.275517 6.05308C0.292463 6.09779 0.31885 6.1384 0.35291 6.17217C0.386969 6.20594 0.427912 6.2321 0.473001 6.24891C0.518088 6.26572 0.566277 6.27276 0.614338 6.26959H9.81896C9.86701 6.27276 9.91519 6.26572 9.96028 6.24891C10.0054 6.2321 10.0463 6.20594 10.0804 6.17217C10.1144 6.1384 10.1408 6.09779 10.1578 6.05308C10.1747 6.00838 10.1818 5.9606 10.1786 5.91293V5.12227C10.1818 5.07445 10.1746 5.0265 10.1577 4.98159C10.1408 4.93668 10.1145 4.89582 10.0805 4.86172C10.0465 4.82762 10.0057 4.80106 9.96058 4.78374C9.91549 4.76645 9.86724 4.75881 9.81896 4.76134H0.614338C0.56606 4.75881 0.51779 4.76645 0.472703 4.78374C0.427618 4.80106 0.386742 4.82762 0.352761 4.86172C0.318781 4.89582 0.29247 4.93668 0.275558 4.98159C0.258648 5.0265 0.251523 5.07445 0.25465 5.12227V5.91293Z" fill="white"/>
<path id="Vector_6" d="M0.254623 8.19471C0.251496 8.24256 0.258623 8.29048 0.275532 8.33539C0.292442 8.38031 0.318753 8.42117 0.352733 8.45527C0.386714 8.48937 0.42759 8.51593 0.472677 8.53324C0.517761 8.55056 0.566032 8.55818 0.61431 8.55565H9.81893C9.86719 8.55818 9.91547 8.55056 9.96056 8.53324C10.0056 8.51593 10.0465 8.48937 10.0805 8.45527C10.1145 8.42117 10.1408 8.38031 10.1577 8.33539C10.1746 8.29048 10.1817 8.24256 10.1786 8.19471V7.42124C10.1817 7.37339 10.1746 7.32544 10.1577 7.28053C10.1408 7.23565 10.1145 7.19479 10.0805 7.16069C10.0465 7.12658 10.0056 7.1 9.96056 7.08271C9.91547 7.06539 9.86719 7.05777 9.81893 7.06028H0.61431C0.566032 7.05777 0.517761 7.06539 0.472677 7.08271C0.42759 7.1 0.386714 7.12658 0.352733 7.16069C0.318753 7.19479 0.292442 7.23565 0.275532 7.28053C0.258623 7.32544 0.251496 7.37339 0.254623 7.42124V8.19471Z" fill="white"/>
<path id="Vector_7" d="M2.57333 10.4377C2.56948 10.4857 2.57611 10.534 2.59276 10.5792C2.60943 10.6245 2.63571 10.6656 2.66984 10.6999C2.70398 10.7341 2.74516 10.7607 2.79056 10.7777C2.83598 10.7948 2.88457 10.8019 2.93302 10.7987H11.3402C11.3889 10.8018 11.4376 10.7947 11.4832 10.7776C11.5288 10.7606 11.5703 10.7342 11.6047 10.7C11.6392 10.6658 11.6659 10.6247 11.683 10.5795C11.7002 10.5343 11.7074 10.486 11.7043 10.4377V9.64707C11.7068 9.59919 11.6991 9.55135 11.6817 9.50664C11.6642 9.46193 11.6374 9.4214 11.603 9.3877C11.5686 9.354 11.5274 9.32793 11.4821 9.31114C11.4368 9.29438 11.3885 9.28732 11.3402 9.29041H2.93302C2.88495 9.28724 2.83677 9.29431 2.79168 9.31112C2.74659 9.3279 2.70564 9.35408 2.67158 9.38785C2.63752 9.42162 2.61114 9.46223 2.59419 9.50691C2.57724 9.55162 2.57014 9.59942 2.57333 9.64707V10.4377Z" fill="white"/>
<path id="Vector_8" d="M23.9528 12.7367C23.956 12.7849 23.9488 12.8333 23.9316 12.8785C23.9144 12.9237 23.8877 12.9648 23.8533 12.999C23.8188 13.0331 23.7774 13.0596 23.7318 13.0766C23.6862 13.0936 23.6374 13.1008 23.5888 13.0977H14.3842C14.3357 13.1009 14.2871 13.0937 14.2417 13.0767C14.1963 13.0596 14.1551 13.0331 14.121 12.9988C14.0869 12.9646 14.0606 12.9234 14.0439 12.8782C14.0273 12.833 14.0207 12.7847 14.0245 12.7367V11.9503C14.0207 11.9023 14.0273 11.8541 14.0439 11.8088C14.0606 11.7636 14.0869 11.7225 14.121 11.6882C14.1551 11.654 14.1963 11.6274 14.2417 11.6103C14.2871 11.5933 14.3357 11.5861 14.3842 11.5894H23.5888C23.6374 11.5862 23.6862 11.5934 23.7318 11.6104C23.7774 11.6274 23.8188 11.6539 23.8533 11.6881C23.8877 11.7223 23.9144 11.7633 23.9316 11.8085C23.9488 11.8538 23.956 11.9021 23.9528 11.9503V12.7367Z" fill="white"/>
<path id="Vector_9" d="M23.9528 15.0398C23.9554 15.0877 23.9476 15.1356 23.9302 15.1803C23.9127 15.225 23.886 15.2655 23.8516 15.2992C23.8172 15.3329 23.776 15.359 23.7307 15.3757C23.6854 15.3925 23.637 15.3996 23.5888 15.3965H14.3842C14.3361 15.3996 14.2879 15.3926 14.2428 15.3758C14.1978 15.359 14.1568 15.3328 14.1228 15.299C14.0887 15.2653 14.0623 15.2247 14.0454 15.18C14.0284 15.1352 14.0213 15.0875 14.0245 15.0398V14.2491C14.0207 14.2011 14.0273 14.1529 14.0439 14.1077C14.0606 14.0624 14.0869 14.0213 14.121 13.987C14.1551 13.9528 14.1963 13.9262 14.2417 13.9092C14.2871 13.8921 14.3357 13.885 14.3842 13.8882H23.5888C23.6374 13.885 23.6862 13.8922 23.7318 13.9092C23.7774 13.9263 23.8188 13.9527 23.8533 13.9869C23.8877 14.0211 23.9144 14.0622 23.9316 14.1074C23.9488 14.1526 23.956 14.2009 23.9528 14.2491V15.0398Z" fill="white"/>
<path id="Vector_10" d="M21.635 17.2657C21.6375 17.3138 21.6298 17.3618 21.6124 17.4067C21.595 17.4516 21.5682 17.4924 21.5339 17.5265C21.4996 17.5605 21.4585 17.587 21.4132 17.6042C21.3679 17.6215 21.3194 17.6292 21.271 17.6267H12.7901C12.7418 17.6292 12.6935 17.6216 12.6485 17.6043C12.6034 17.587 12.5625 17.5604 12.5285 17.5263C12.4945 17.4922 12.4682 17.4513 12.4513 17.4064C12.4344 17.3615 12.4273 17.3136 12.4304 17.2657V16.4751C12.4273 16.4272 12.4344 16.3793 12.4513 16.3344C12.4682 16.2895 12.4945 16.2486 12.5285 16.2145C12.5625 16.1804 12.6034 16.1538 12.6485 16.1365C12.6935 16.1192 12.7418 16.1116 12.7901 16.1141H21.1973C21.2458 16.1116 21.2942 16.1193 21.3395 16.1366C21.3848 16.1538 21.4259 16.1803 21.4603 16.2143C21.4946 16.2484 21.5213 16.2892 21.5387 16.3341C21.5561 16.379 21.5638 16.427 21.5613 16.4751L21.635 17.2657Z" fill="white"/>
<path id="Vector_11" d="M18.5869 19.5647C18.59 19.6125 18.5829 19.6605 18.566 19.7054C18.5491 19.7503 18.5227 19.7911 18.4888 19.8252C18.4548 19.8593 18.4139 19.8859 18.3688 19.9032C18.3237 19.9205 18.2755 19.9282 18.2272 19.9256H11.3411C11.2926 19.9281 11.2442 19.9205 11.1989 19.9032C11.1536 19.8859 11.1125 19.8594 11.0781 19.8254C11.0438 19.7914 11.0171 19.7506 10.9997 19.7057C10.9823 19.6608 10.9746 19.6127 10.977 19.5647V18.774C10.9745 18.7262 10.9822 18.6783 10.9997 18.6336C11.0171 18.5889 11.0439 18.5483 11.0783 18.5147C11.1127 18.481 11.1539 18.4549 11.1992 18.4381C11.2445 18.4213 11.2928 18.4143 11.3411 18.4174H18.2185C18.2666 18.4142 18.3148 18.4212 18.3599 18.4381C18.405 18.4549 18.4459 18.481 18.4799 18.5148C18.514 18.5486 18.5404 18.5892 18.5574 18.6339C18.5743 18.6786 18.5814 18.7264 18.5782 18.774L18.5869 19.5647Z" fill="white"/>
<path id="Vector_12" d="M5.5437 12.7367C5.54051 12.7849 5.54774 12.8332 5.56492 12.8784C5.58208 12.9237 5.60878 12.9647 5.64325 12.9989C5.6777 13.0331 5.71913 13.0596 5.76473 13.0766C5.81036 13.0936 5.8591 13.1008 5.90774 13.0976H12.7895C12.8381 13.1008 12.8869 13.0936 12.9325 13.0766C12.9781 13.0596 13.0195 13.0331 13.054 12.9989C13.0885 12.9647 13.1152 12.9237 13.1323 12.8784C13.1495 12.8332 13.1567 12.7849 13.1535 12.7367V11.9503C13.1567 11.9021 13.1495 11.8537 13.1323 11.8085C13.1152 11.7633 13.0885 11.7222 13.054 11.6881C13.0195 11.6539 12.9781 11.6274 12.9325 11.6104C12.8869 11.5934 12.8381 11.5862 12.7895 11.5894H5.90774C5.8591 11.5862 5.81036 11.5934 5.76473 11.6104C5.71913 11.6274 5.6777 11.6539 5.64325 11.6881C5.60878 11.7222 5.58208 11.7633 5.56492 11.8085C5.54774 11.8537 5.54051 11.9021 5.5437 11.9503V12.7367Z" fill="white"/>
</g>
<defs>
<clipPath id="clip0_2222_6240">
<rect width="24" height="20" fill="white"/>
</clipPath>
</defs>
</svg>
